-------------------------------------------------
AVC (Advanced Video Coding) H264
High Efficiency Dolby Digital Stereo
-------------------------------------------------

IMDB 
http://www.imdb.com/title/tt1243957/


Revolves around Frank, an American tourist visiting Italy to mend a broken heart. Elise is an extraordinary woman who deliberately crosses his path. 

Johnny Depp, Angelina Jolie and Paul Bettany



Tourist [The] (2010) BRrip 480p [Greek Subs] Omifast Media Info

Format                           : MPEG-4
File size                        : 601 MiB
Duration                         : 1h 43mn
Overall bit rate                 : 812 Kbps

Video
Format/Info                      : Advanced Video Codec
Duration                         : 1h 43mn
Bit rate mode                    : Variable
Bit rate                         : 729 Kbps
Maximum bit rate                 : 5 105 Kbps
Width                            : 720 pixels
Height                           : 480 pixels
Display aspect ratio             : 16:9
Frame rate mode                  : Constant
Frame rate                       : 25.000 fps
Standard                         : PAL
Stream size                      : 539 MiB (90%)
Language                         : English

Audio
ID                               : 2
Format                           : AAC
Format/Info                      : Advanced Audio Codec
Format profile                   : HE-AAC / LC
Codec ID                         : 40
Duration                         : 1h 43mn
Bit rate mode                    : Variable
Bit rate                         : 80.0 Kbps
Maximum bit rate                 : 94.1 Kbps
Channel(s)                       : 2 channels
Channel positions                : Front: L R
Sampling rate                    : 48.0 KHz / 24.0 KHz
Compression mode                 : Lossy
Stream size                      : 59.2 MiB (10%)
Language                         : English

